<svg width="50" height="50" viewBox="0 0 50 50" fill="none" xmlns="http://www.w3.org/2000/svg">
<path fill-rule="evenodd" clip-rule="evenodd" d="M10 12.5C8.67392 12.5 7.40215 13.0268 6.46447 13.9645C5.52678 14.9021 5 16.1739 5 17.5V37.5C5 38.8261 5.52678 40.0979 6.46447 41.0355C7.40215 41.9732 8.67392 42.5 10 42.5H40C41.3261 42.5 42.5978 41.9732 43.5355 41.0355C44.4732 40.0979 45 38.8261 45 37.5V17.5C45 16.1739 44.4732 14.9021 43.5355 13.9645C42.5978 13.0268 41.3261 12.5 40 12.5H36.035C35.372 12.4999 34.7362 12.2364 34.2675 11.7675L31.465 8.965C30.5275 8.02725 29.256 7.50028 27.93 7.5H22.07C20.744 7.50028 19.4725 8.02725 18.535 8.965L15.7325 11.7675C15.2638 12.2364 14.628 12.4999 13.965 12.5H10ZM25 35C25.9849 35 26.9602 34.806 27.8701 34.4291C28.7801 34.0522 29.6069 33.4997 30.3033 32.8033C30.9997 32.1069 31.5522 31.2801 31.9291 30.3701C32.306 29.4602 32.5 28.4849 32.5 27.5C32.5 26.5151 32.306 25.5398 31.9291 24.6299C31.5522 23.7199 30.9997 22.8931 30.3033 22.1967C29.6069 21.5003 28.7801 20.9478 27.8701 20.5709C26.9602 20.194 25.9849 20 25 20C23.0109 20 21.1032 20.7902 19.6967 22.1967C18.2902 23.6032 17.5 25.5109 17.5 27.5C17.5 29.4891 18.2902 31.3968 19.6967 32.8033C21.1032 34.2098 23.0109 35 25 35Z" fill="#A1A1AA"/>
</svg>
