<svg width="24" height="14" viewBox="0 0 24 14" fill="none" xmlns="http://www.w3.org/2000/svg">
<path fill-rule="evenodd" clip-rule="evenodd" d="M22.6512 13.2891C22.2141 13.7256 21.6214 13.9709 21.0035 13.9709C20.3855 13.9709 19.7928 13.7256 19.3558 13.2891L11.6814 5.62085L4.007 13.2891C3.79201 13.5115 3.53485 13.6889 3.25052 13.8109C2.96619 13.933 2.66038 13.9972 2.35093 13.9999C2.04149 14.0026 1.73461 13.9437 1.44819 13.8266C1.16178 13.7095 0.901575 13.5366 0.682756 13.318C0.463938 13.0993 0.290888 12.8393 0.173708 12.5531C0.0565282 12.2669 -0.00243932 11.9603 0.000248161 11.6511C0.00293755 11.3419 0.0672286 11.0364 0.189368 10.7523C0.311508 10.4681 0.489054 10.2112 0.711644 9.99638L10.0337 0.681796C10.4708 0.245242 11.0634 -1.07268e-06 11.6814 -1.01866e-06C12.2994 -9.64634e-07 12.892 0.245242 13.3291 0.681796L22.6512 9.99639C23.0881 10.4331 23.3335 11.0253 23.3335 11.6427C23.3335 12.2602 23.0881 12.8524 22.6512 13.2891Z" fill="#3F3F46"/>
</svg>
