<svg width="52" height="52" viewBox="0 0 52 52" fill="none" xmlns="http://www.w3.org/2000/svg">
<g id="x">
<path id="Vector" fill-rule="evenodd" clip-rule="evenodd" d="M16.1081 16.0972C16.4331 15.7723 16.8739 15.5897 17.3335 15.5897C17.7932 15.5897 18.234 15.7723 18.559 16.0972L26.0002 23.5384L33.4414 16.0972C33.6013 15.9317 33.7926 15.7996 34.004 15.7088C34.2155 15.6179 34.443 15.5701 34.6731 15.5681C34.9033 15.5661 35.1315 15.61 35.3445 15.6971C35.5576 15.7843 35.7511 15.913 35.9138 16.0757C36.0766 16.2385 36.2053 16.432 36.2924 16.645C36.3796 16.8581 36.4235 17.0863 36.4215 17.3164C36.4195 17.5466 36.3716 17.774 36.2808 17.9855C36.19 18.197 36.0579 18.3883 35.8923 18.5482L28.4511 25.9894L35.8923 33.4306C36.2081 33.7575 36.3828 34.1953 36.3789 34.6498C36.3749 35.1043 36.1926 35.539 35.8712 35.8604C35.5499 36.1817 35.1151 36.364 34.6606 36.368C34.2062 36.3719 33.7683 36.1972 33.4414 35.8815L26.0002 28.4403L18.559 35.8815C18.2321 36.1972 17.7943 36.3719 17.3398 36.368C16.8853 36.364 16.4506 36.1817 16.1292 35.8604C15.8078 35.539 15.6255 35.1043 15.6216 34.6498C15.6176 34.1953 15.7923 33.7575 16.1081 33.4306L23.5493 25.9894L16.1081 18.5482C15.7831 18.2231 15.6006 17.7823 15.6006 17.3227C15.6006 16.8631 15.7831 16.4223 16.1081 16.0972Z" fill="#3F3F46"/>
</g>
</svg>
