<svg width="162" height="18" viewBox="0 0 162 18" fill="none" xmlns="http://www.w3.org/2000/svg">
<path d="M10.201 8.72C11.1363 8.91933 11.8877 9.387 12.455 10.123C13.0223 10.8437 13.306 11.6717 13.306 12.607C13.306 13.9563 12.8307 15.0297 11.88 15.827C10.9447 16.609 9.63367 17 7.947 17H0.426V0.853999H7.694C9.33467 0.853999 10.615 1.22967 11.535 1.981C12.4703 2.73233 12.938 3.752 12.938 5.04C12.938 5.99067 12.685 6.78033 12.179 7.409C11.6883 8.03767 11.029 8.47467 10.201 8.72ZM4.359 7.386H6.935C7.579 7.386 8.06967 7.248 8.407 6.972C8.75967 6.68067 8.936 6.259 8.936 5.707C8.936 5.155 8.75967 4.73333 8.407 4.442C8.06967 4.15067 7.579 4.005 6.935 4.005H4.359V7.386ZM7.257 13.826C7.91633 13.826 8.42233 13.6803 8.775 13.389C9.143 13.0823 9.327 12.6453 9.327 12.078C9.327 11.5107 9.13533 11.066 8.752 10.744C8.384 10.422 7.87033 10.261 7.211 10.261H4.359V13.826H7.257ZM14.9201 8.904C14.9201 7.30933 15.2651 5.891 15.9551 4.649C16.6451 3.39167 17.6035 2.418 18.8301 1.728C20.0721 1.02267 21.4751 0.669999 23.0391 0.669999C24.9558 0.669999 26.5965 1.176 27.9611 2.188C29.3258 3.2 30.2381 4.58 30.6981 6.328H26.3741C26.0521 5.65333 25.5921 5.13967 24.9941 4.787C24.4115 4.43433 23.7445 4.258 22.9931 4.258C21.7818 4.258 20.8005 4.67967 20.0491 5.523C19.2978 6.36633 18.9221 7.49333 18.9221 8.904C18.9221 10.3147 19.2978 11.4417 20.0491 12.285C20.8005 13.1283 21.7818 13.55 22.9931 13.55C23.7445 13.55 24.4115 13.3737 24.9941 13.021C25.5921 12.6683 26.0521 12.1547 26.3741 11.48H30.6981C30.2381 13.228 29.3258 14.608 27.9611 15.62C26.5965 16.6167 24.9558 17.115 23.0391 17.115C21.4751 17.115 20.0721 16.77 18.8301 16.08C17.6035 15.3747 16.6451 14.401 15.9551 13.159C15.2651 11.917 14.9201 10.4987 14.9201 8.904ZM43.1577 14.148H37.1317L36.1657 17H32.0487L37.8907 0.853999H42.4447L48.2867 17H44.1237L43.1577 14.148ZM42.1457 11.112L40.1447 5.201L38.1667 11.112H42.1457ZM60.5757 0.853999V4.005H53.9977V7.409H58.9197V10.468H53.9977V17H50.0647V0.853999H60.5757Z" fill="#60A5FA"/>
<path d="M71.4498 0.853999V17H67.5168V0.853999H71.4498ZM88.744 17H84.811L78.233 7.041V17H74.3V0.853999H78.233L84.811 10.859V0.853999H88.744V17ZM99.2309 17.161C97.7129 17.161 96.3176 16.8083 95.0449 16.103C93.7876 15.3977 92.7833 14.4163 92.0319 13.159C91.2959 11.8863 90.9279 10.4603 90.9279 8.881C90.9279 7.30167 91.2959 5.88333 92.0319 4.626C92.7833 3.36867 93.7876 2.38733 95.0449 1.682C96.3176 0.976666 97.7129 0.624 99.2309 0.624C100.749 0.624 102.137 0.976666 103.394 1.682C104.667 2.38733 105.663 3.36867 106.384 4.626C107.12 5.88333 107.488 7.30167 107.488 8.881C107.488 10.4603 107.12 11.8863 106.384 13.159C105.648 14.4163 104.651 15.3977 103.394 16.103C102.137 16.8083 100.749 17.161 99.2309 17.161ZM99.2309 13.573C100.519 13.573 101.546 13.1437 102.313 12.285C103.095 11.4263 103.486 10.2917 103.486 8.881C103.486 7.455 103.095 6.32033 102.313 5.477C101.546 4.61833 100.519 4.189 99.2309 4.189C97.9276 4.189 96.8849 4.61067 96.1029 5.454C95.3363 6.29733 94.9529 7.43967 94.9529 8.881C94.9529 10.307 95.3363 11.4493 96.1029 12.308C96.8849 13.1513 97.9276 13.573 99.2309 13.573ZM124.833 0.853999L119.106 17H114.184L108.457 0.853999H112.643L116.645 13.044L120.67 0.853999H124.833ZM136.528 14.148H130.502L129.536 17H125.419L131.261 0.853999H135.815L141.657 17H137.494L136.528 14.148ZM135.516 11.112L133.515 5.201L131.537 11.112H135.516ZM149.277 17.161C148.096 17.161 147.038 16.9693 146.103 16.586C145.167 16.2027 144.416 15.6353 143.849 14.884C143.297 14.1327 143.005 13.228 142.975 12.17H147.161C147.222 12.768 147.429 13.228 147.782 13.55C148.134 13.8567 148.594 14.01 149.162 14.01C149.744 14.01 150.204 13.8797 150.542 13.619C150.879 13.343 151.048 12.9673 151.048 12.492C151.048 12.0933 150.91 11.7637 150.634 11.503C150.373 11.2423 150.043 11.0277 149.645 10.859C149.261 10.6903 148.709 10.4987 147.989 10.284C146.946 9.962 146.095 9.64 145.436 9.318C144.776 8.996 144.209 8.52067 143.734 7.892C143.258 7.26333 143.021 6.443 143.021 5.431C143.021 3.92833 143.565 2.75533 144.654 1.912C145.742 1.05333 147.161 0.624 148.909 0.624C150.687 0.624 152.121 1.05333 153.21 1.912C154.298 2.75533 154.881 3.936 154.958 5.454H150.703C150.672 4.93267 150.48 4.52633 150.128 4.235C149.775 3.92833 149.323 3.775 148.771 3.775C148.295 3.775 147.912 3.90533 147.621 4.166C147.329 4.41133 147.184 4.77167 147.184 5.247C147.184 5.76833 147.429 6.17467 147.92 6.466C148.41 6.75733 149.177 7.07167 150.22 7.409C151.262 7.76167 152.106 8.099 152.75 8.421C153.409 8.743 153.976 9.21067 154.452 9.824C154.927 10.4373 155.165 11.227 155.165 12.193C155.165 13.113 154.927 13.9487 154.452 14.7C153.992 15.4513 153.317 16.0493 152.428 16.494C151.538 16.9387 150.488 17.161 149.277 17.161ZM161.518 0.853999V17H157.585V0.853999H161.518Z" fill="#EAB308"/>
</svg>
