<svg width="36" height="36" viewBox="0 0 36 36" fill="none" xmlns="http://www.w3.org/2000/svg">
<path d="M31.3453 4.6548C30.6702 3.9799 29.7547 3.60077 28.8001 3.60077C27.8455 3.60077 26.93 3.9799 26.2549 4.6548L12.6001 18.3096V23.4H17.6905L31.3453 9.7452C32.0202 9.0701 32.3993 8.15459 32.3993 7.2C32.3993 6.24541 32.0202 5.3299 31.3453 4.6548Z" fill="#60A5FA"/>
<path fill-rule="evenodd" clip-rule="evenodd" d="M3.6001 10.8C3.6001 9.84523 3.97938 8.92956 4.65451 8.25443C5.32964 7.5793 6.24532 7.20001 7.2001 7.20001H14.4001C14.8775 7.20001 15.3353 7.38965 15.6729 7.72722C16.0105 8.06479 16.2001 8.52262 16.2001 9.00001C16.2001 9.4774 16.0105 9.93524 15.6729 10.2728C15.3353 10.6104 14.8775 10.8 14.4001 10.8H7.2001V28.8H25.2001V21.6C25.2001 21.1226 25.3897 20.6648 25.7273 20.3272C26.0649 19.9897 26.5227 19.8 27.0001 19.8C27.4775 19.8 27.9353 19.9897 28.2729 20.3272C28.6105 20.6648 28.8001 21.1226 28.8001 21.6V28.8C28.8001 29.7548 28.4208 30.6705 27.7457 31.3456C27.0705 32.0207 26.1549 32.4 25.2001 32.4H7.2001C6.24532 32.4 5.32964 32.0207 4.65451 31.3456C3.97938 30.6705 3.6001 29.7548 3.6001 28.8V10.8Z" fill="#60A5FA"/>
</svg>
