<svg width="24" height="24" viewBox="0 0 24 24" fill="none" xmlns="http://www.w3.org/2000/svg">
<path id="Vector" fill-rule="evenodd" clip-rule="evenodd" d="M0 9.25981C0 6.01857 7.94729e-08 4.39796 0.581293 3.15997C1.09263 2.071 1.90852 1.18565 2.91205 0.630781C4.05292 -2.58716e-07 5.54639 0 8.53333 0H15.4667C18.4536 0 19.9471 -2.58716e-07 21.088 0.630781C22.0915 1.18565 22.9073 2.071 23.4187 3.15997C24 4.39796 24 6.01857 24 9.25981V10.996C24 14.2372 24 15.8579 23.4187 17.0959C22.9073 18.1848 22.0915 19.0701 21.088 19.625C19.9471 20.2558 18.4536 20.2558 15.4667 20.2558H5.88561C5.532 20.2558 5.19285 20.4083 4.94281 20.6796L2.27615 23.5733C1.43619 24.4848 0 23.8392 0 22.5502V20.2558V13.0216V9.25981ZM8 5.78738C7.26363 5.78738 6.66667 6.43516 6.66667 7.23423C6.66667 8.03329 7.26363 8.68107 8 8.68107H16C16.7364 8.68107 17.3333 8.03329 17.3333 7.23423C17.3333 6.43516 16.7364 5.78738 16 5.78738H8ZM8 11.5748C7.26363 11.5748 6.66667 12.2225 6.66667 13.0216C6.66667 13.8207 7.26363 14.4685 8 14.4685H12C12.7364 14.4685 13.3333 13.8207 13.3333 13.0216C13.3333 12.2225 12.7364 11.5748 12 11.5748H8Z" fill="#A1A1AA"/>
</svg>
