<svg width="36" height="36" viewBox="0 0 36 36" fill="none" xmlns="http://www.w3.org/2000/svg">
<path id="Vector" d="M34.7581 20.0108C35.1314 19.8238 35.4452 19.5366 35.6645 19.1813C35.8838 18.8261 36 18.4168 36 17.9993C36 17.5819 35.8838 17.1726 35.6645 16.8174C35.4452 16.4621 35.1314 16.1749 34.7581 15.9878L3.25693 0.237828C2.86634 0.0424014 2.42732 -0.0351319 1.99342 0.0146862C1.55952 0.0645042 1.14949 0.23952 0.813365 0.518384C0.477237 0.797248 0.229538 1.1679 0.10048 1.58514C-0.0285783 2.00237 -0.0334146 2.44815 0.0865617 2.86808L3.30193 14.1181C3.43642 14.5883 3.72046 15.0019 4.11103 15.2962C4.5016 15.5905 4.97744 15.7496 5.46651 15.7493L15.7516 15.7493C16.3484 15.7493 16.9207 15.9864 17.3427 16.4084C17.7647 16.8303 18.0017 17.4026 18.0017 17.9993C18.0017 18.5961 17.7647 19.1684 17.3427 19.5903C16.9207 20.0123 16.3484 20.2493 15.7516 20.2493L5.46651 20.2493C4.97744 20.2491 4.5016 20.4081 4.11103 20.7025C3.72046 20.9968 3.43642 21.4104 3.30193 21.8806L0.0888093 33.1306C-0.031405 33.5504 -0.026858 33.9961 0.101895 34.4134C0.230647 34.8306 0.478043 35.2014 0.813908 35.4805C1.14977 35.7596 1.55959 35.9349 1.99339 35.9851C2.42719 36.0353 2.86622 35.9581 3.25693 35.7631L34.7581 20.0131L34.7581 20.0108Z" fill="#60A5FA"/>
</svg>
